<svg width="136" height="93" viewBox="0 0 136 93" fill="none" xmlns="http://www.w3.org/2000/svg">
<path d="M27.84 66.52C28.3467 66.0667 28.9067 65.44 29.52 64.64C30.1333 63.8667 30.72 62.9333 31.28 61.84C31.8667 60.7733 32.32 59.6133 32.64 58.36C32.7733 57.8267 32.8667 57.2933 32.92 56.76C32.9733 56.2267 33.0133 55.7067 33.04 55.2V29.56C32.4533 29.2933 31.8133 29.12 31.12 29.04C30.4267 28.96 29.8933 28.92 29.52 28.92V27.72H40.08V28.92C39.7067 28.92 39.1733 28.96 38.48 29.04C37.8133 29.12 37.1733 29.2933 36.56 29.56V56C36.1333 57.76 35.5333 59.3067 34.76 60.64C33.9867 62 33.1733 63.16 32.32 64.12C31.4933 65.08 30.7467 65.8267 30.08 66.36C29.4133 66.92 28.96 67.28 28.72 67.44L27.84 66.52ZM50.8978 56.32C49.1911 56.32 47.6311 55.9067 46.2178 55.08C44.8311 54.2267 43.7111 53.0933 42.8578 51.68C42.0311 50.2667 41.6178 48.6933 41.6178 46.96C41.6178 45.2267 42.0178 43.64 42.8178 42.2C43.6445 40.76 44.7511 39.6133 46.1378 38.76C47.5245 37.88 49.0711 37.44 50.7778 37.44C52.5378 37.44 54.1245 37.88 55.5378 38.76C56.9511 39.6133 58.0578 40.7467 58.8578 42.16C59.6845 43.5733 60.0978 45.1067 60.0978 46.76C60.0978 48.4933 59.6845 50.0933 58.8578 51.56C58.0578 53 56.9645 54.16 55.5778 55.04C54.1911 55.8933 52.6311 56.32 50.8978 56.32ZM51.5378 54.56C52.6045 54.56 53.4978 54.24 54.2178 53.6C54.9645 52.96 55.5378 52.1333 55.9378 51.12C56.3378 50.08 56.5378 48.9867 56.5378 47.84C56.5378 46.4 56.2578 45.0267 55.6978 43.72C55.1378 42.3867 54.3778 41.2933 53.4178 40.44C52.4845 39.5867 51.4045 39.16 50.1778 39.16C49.1645 39.16 48.2711 39.48 47.4978 40.12C46.7511 40.7333 46.1645 41.5467 45.7378 42.56C45.3378 43.5733 45.1378 44.6667 45.1378 45.84C45.1378 47.2533 45.4178 48.64 45.9778 50C46.5378 51.3333 47.2978 52.4267 48.2578 53.28C49.2178 54.1333 50.3111 54.56 51.5378 54.56ZM60.8869 66.52C61.3935 66.0667 61.9535 65.44 62.5669 64.64C63.1802 63.8667 63.7669 62.9333 64.3269 61.84C64.9135 60.7733 65.3669 59.6133 65.6869 58.36C65.8202 57.8267 65.9135 57.2933 65.9669 56.76C66.0202 56.2267 66.0602 55.7067 66.0869 55.2V29.56C65.5002 29.2933 64.8602 29.12 64.1669 29.04C63.4735 28.96 62.9402 28.92 62.5669 28.92V27.72H73.1269V28.92C72.7535 28.92 72.2202 28.96 71.5269 29.04C70.8602 29.12 70.2202 29.2933 69.6069 29.56V56C69.1802 57.76 68.5802 59.3067 67.8069 60.64C67.0335 62 66.2202 63.16 65.3669 64.12C64.5402 65.08 63.7935 65.8267 63.1269 66.36C62.4602 66.92 62.0069 67.28 61.7669 67.44L60.8869 66.52ZM83.9447 56.32C82.238 56.32 80.678 55.9067 79.2647 55.08C77.878 54.2267 76.758 53.0933 75.9047 51.68C75.078 50.2667 74.6647 48.6933 74.6647 46.96C74.6647 45.2267 75.0647 43.64 75.8647 42.2C76.6914 40.76 77.798 39.6133 79.1847 38.76C80.5714 37.88 82.118 37.44 83.8247 37.44C85.5847 37.44 87.1714 37.88 88.5847 38.76C89.998 39.6133 91.1047 40.7467 91.9047 42.16C92.7314 43.5733 93.1447 45.1067 93.1447 46.76C93.1447 48.4933 92.7314 50.0933 91.9047 51.56C91.1047 53 90.0114 54.16 88.6247 55.04C87.238 55.8933 85.678 56.32 83.9447 56.32ZM84.5847 54.56C85.6514 54.56 86.5447 54.24 87.2647 53.6C88.0114 52.96 88.5847 52.1333 88.9847 51.12C89.3847 50.08 89.5847 48.9867 89.5847 47.84C89.5847 46.4 89.3047 45.0267 88.7447 43.72C88.1847 42.3867 87.4247 41.2933 86.4647 40.44C85.5314 39.5867 84.4514 39.16 83.2247 39.16C82.2114 39.16 81.318 39.48 80.5447 40.12C79.798 40.7333 79.2114 41.5467 78.7847 42.56C78.3847 43.5733 78.1847 44.6667 78.1847 45.84C78.1847 47.2533 78.4647 48.64 79.0247 50C79.5847 51.3333 80.3447 52.4267 81.3047 53.28C82.2647 54.1333 83.358 54.56 84.5847 54.56Z" fill="black"/>
<path d="M78.1 73H71.26V60.4H72.754V72.82H78.1V73ZM79.4044 73H79.1884L84.5704 60.4L84.7684 60.31L89.3044 73H87.7744L86.3704 69.04H81.1144L79.4044 73ZM84.0124 62.344L81.1864 68.86H86.3164L84.0124 62.344ZM90.9299 60.544C92.3219 60.448 93.5519 60.4 94.6199 60.4C97.5839 60.4 99.0659 61.39 99.0659 63.37C99.0659 64.114 98.8499 64.756 98.4179 65.296C97.9859 65.824 97.2959 66.184 96.3479 66.376C97.2599 66.484 97.9799 66.76 98.5079 67.204C99.0359 67.648 99.2999 68.422 99.2999 69.526C99.2999 71.842 97.8179 73 94.8539 73H90.9299V60.544ZM92.4239 72.82H94.8539C95.9219 72.82 96.6779 72.544 97.1219 71.992C97.5779 71.428 97.8059 70.57 97.8059 69.418C97.8059 68.266 97.5779 67.498 97.1219 67.114C96.6659 66.73 95.9879 66.526 95.0879 66.502H92.4239V72.82ZM94.6199 60.58C93.9239 60.58 93.1919 60.622 92.4239 60.706V66.322H95.0879C96.7799 66.25 97.6259 65.278 97.6259 63.406C97.6259 62.494 97.3739 61.798 96.8699 61.318C96.3659 60.826 95.6159 60.58 94.6199 60.58ZM107.838 61.156C106.746 60.736 105.714 60.526 104.742 60.526C103.782 60.526 103.032 60.73 102.492 61.138C101.952 61.546 101.682 62.11 101.682 62.83C101.682 63.706 102.138 64.384 103.05 64.864C103.458 65.068 103.902 65.26 104.382 65.44C104.874 65.608 105.366 65.8 105.858 66.016C106.35 66.232 106.8 66.478 107.208 66.754C107.616 67.03 107.946 67.414 108.198 67.906C108.45 68.386 108.576 69.004 108.576 69.76C108.576 70.504 108.366 71.14 107.946 71.668C107.526 72.196 107.016 72.556 106.416 72.748C105.828 72.928 105.138 73.018 104.346 73.018C102.87 73.018 101.61 72.652 100.566 71.92L100.656 71.776C101.052 72.088 101.562 72.346 102.186 72.55C102.822 72.742 103.47 72.838 104.13 72.838C105.102 72.838 105.93 72.616 106.614 72.172C107.31 71.716 107.658 71.05 107.658 70.174C107.658 69.214 107.202 68.464 106.29 67.924C105.882 67.684 105.432 67.462 104.94 67.258C104.46 67.054 103.974 66.844 103.482 66.628C102.99 66.4 102.54 66.148 102.132 65.872C101.22 65.272 100.764 64.42 100.764 63.316C100.764 62.44 101.058 61.732 101.646 61.192C102.234 60.64 103.116 60.364 104.292 60.364C105.48 60.364 106.686 60.568 107.91 60.976L107.838 61.156Z" fill="black"/>
</svg>
